<svg width="83" height="41" viewBox="0 0 83 41" fill="none" xmlns="http://www.w3.org/2000/svg">
<path d="M1.3875 25.0394C0.631288 25.3776 0.292477 26.2649 0.630749 27.0211L6.14321 39.3444C6.48148 40.1006 7.36874 40.4394 8.12495 40.1011C8.88117 39.7628 9.21998 38.8756 8.88171 38.1194L3.98175 27.1654L14.9358 22.2654C15.692 21.9271 16.0308 21.0399 15.6925 20.2837C15.3542 19.5274 14.467 19.1886 13.7108 19.5269L1.3875 25.0394ZM75.6791 1.60339C78.0009 6.88782 79.6044 12.9403 79.4947 18.5274C79.3855 24.0889 77.5911 29.0717 73.2422 32.5178C68.8538 35.9951 61.6024 38.1192 50.1311 37.339C38.6727 36.5596 23.1827 32.8919 2.53511 25.0073L1.46489 27.8099C22.2564 35.7494 38.057 39.5247 49.9275 40.332C61.7851 41.1385 69.9009 38.993 75.1053 34.8691C80.349 30.7141 82.3728 24.7642 82.4941 18.5863C82.6149 12.434 80.8614 5.94032 78.4256 0.396614L75.6791 1.60339Z" fill="#D36741"/>
</svg>
