<svg width="554" height="156" viewBox="0 0 554 156" fill="none" xmlns="http://www.w3.org/2000/svg">
<path d="M377.394 81.2958C377.394 91.6098 375.674 101.236 372.234 110.175C368.795 119.114 364.11 126.953 358.179 133.691C352.248 140.43 345.31 145.793 337.363 149.781C329.534 153.632 321.113 155.557 312.098 155.557C303.084 155.557 294.603 153.632 286.656 149.781C278.828 145.793 271.948 140.43 266.018 133.691C260.087 126.953 255.402 119.114 251.962 110.175C248.522 101.236 246.803 91.6098 246.803 81.2958V80.4707H230.434V149.162H239.33V155.144H174.034V149.162H183.464V13.6359H174.034V7.65374H239.33V13.6359H230.434V74.4886H246.98C247.573 66.7874 249.234 59.4989 251.962 52.6229C255.402 43.5465 260.087 35.6391 266.018 28.9006C271.948 22.1621 278.828 16.8676 286.656 13.017C294.603 9.02894 303.084 7.0349 312.098 7.0349C321.113 7.0349 329.534 9.02894 337.363 13.017C345.31 16.8676 352.248 22.1621 358.179 28.9006C364.11 35.6391 368.795 43.5465 372.234 52.6229C375.674 61.5617 377.394 71.1193 377.394 81.2958ZM372.234 81.2958C372.234 71.8069 370.633 62.9369 367.431 54.6857C364.347 46.2969 360.077 39.0084 354.621 32.8199C349.165 26.6315 342.759 21.7496 335.406 18.174C328.17 14.5985 320.401 12.8107 312.098 12.8107C309.726 12.8107 307.413 12.9483 305.16 13.2233C303.025 13.3608 300.89 13.7734 298.754 14.461V147.924C303.025 149.162 307.472 149.781 312.098 149.781C320.401 149.781 328.17 147.993 335.406 144.418C342.759 140.842 349.165 135.96 354.621 129.772C360.077 123.583 364.347 116.363 367.431 108.112C370.633 99.7235 372.234 90.7847 372.234 81.2958ZM211.041 139.673C209.381 138.986 207.898 137.817 206.593 136.166C205.407 134.379 204.814 132.385 204.814 130.184C204.814 127.846 205.407 125.852 206.593 124.202C207.779 122.414 209.262 121.177 211.041 120.489C209.381 119.801 207.898 118.633 206.593 116.982C205.407 115.195 204.814 113.132 204.814 110.794C204.814 108.456 205.407 106.462 206.593 104.812C207.779 103.024 209.262 101.786 211.041 101.099C209.381 100.411 207.898 99.2422 206.593 97.592C205.407 95.8042 204.814 93.7414 204.814 91.4036C204.814 89.0657 205.407 87.0717 206.593 85.4214C207.779 83.6337 209.262 82.396 211.041 81.7084C209.381 81.0208 207.898 79.8519 206.593 78.2016C205.407 76.4139 204.814 74.3511 204.814 72.0132C204.814 69.6754 205.407 67.6813 206.593 66.0311C207.779 64.2433 209.262 63.0056 211.041 62.318C209.381 61.6304 207.898 60.4615 206.593 58.8113C205.407 57.0235 204.814 54.9607 204.814 52.6229C204.814 50.285 205.407 48.291 206.593 46.6407C207.779 44.853 209.262 43.6153 211.041 42.9277C209.381 42.2401 207.898 41.0712 206.593 39.4209C205.407 37.6331 204.814 35.5703 204.814 33.2325C204.814 31.0322 205.407 29.1069 206.593 27.4566C207.779 25.6689 209.262 24.4312 211.041 23.7436C209.381 23.056 207.957 21.8183 206.771 20.0306C205.585 18.2428 204.992 16.2488 204.992 14.0484V13.6359H193.249V149.162H204.992C204.992 146.962 205.526 145.036 206.593 143.386C207.779 141.598 209.203 140.361 210.863 139.673H211.041ZM280.251 137.61C278.59 136.923 277.167 135.754 275.981 134.104C274.914 132.453 274.38 130.528 274.38 128.328C274.38 126.127 274.914 124.202 275.981 122.552C277.167 120.902 278.59 119.733 280.251 119.045C278.59 118.358 277.167 117.189 275.981 115.538C274.914 113.888 274.38 111.894 274.38 109.556C274.38 107.356 274.914 105.431 275.981 103.78C277.167 102.13 278.59 100.961 280.251 100.274C278.59 99.586 277.167 98.4171 275.981 96.7669C274.914 95.1166 274.38 93.1226 274.38 90.7847C274.38 88.5844 274.914 86.6591 275.981 85.0089C277.167 83.3586 278.59 82.1897 280.251 81.5021C278.59 80.8145 277.167 79.6456 275.981 77.9953C274.914 76.3451 274.38 74.4198 274.38 72.2195C274.38 69.8816 274.914 67.8876 275.981 66.2374C277.167 64.5871 278.59 63.4182 280.251 62.7306C278.59 62.043 277.167 60.8741 275.981 59.2238C274.914 57.5736 274.38 55.6483 274.38 53.448C274.38 51.1101 274.914 49.1161 275.981 47.4658C277.167 45.8156 278.59 44.6467 280.251 43.9591C278.59 43.2715 277.167 42.1026 275.981 40.4523C274.914 38.8021 274.38 36.8768 274.38 34.6765C274.38 32.4761 274.914 30.5509 275.981 28.9006C277.167 27.2504 278.59 26.0814 280.251 25.3938C279.895 25.1188 279.599 24.9813 279.361 24.9813C279.124 24.8438 278.887 24.6375 278.65 24.3624C272.245 29.3132 266.967 35.1578 262.815 41.8963V120.489C265.069 123.927 267.5 127.159 270.11 130.184C272.838 133.21 275.803 135.96 279.006 138.436C279.243 138.16 279.658 137.885 280.251 137.61ZM225.452 13.6359H219.937V149.162H225.274L225.452 13.6359ZM293.595 16.1112C292.053 16.6613 290.57 17.2801 289.147 17.9678V144.624C289.977 144.899 290.748 145.243 291.46 145.655C292.172 145.93 292.883 146.137 293.595 146.274V16.1112ZM203.569 81.0895C203.569 82.1897 203.213 83.1524 202.501 83.9775C201.789 84.8026 200.959 85.2152 200.01 85.2152C199.061 85.2152 198.172 84.8026 197.341 83.9775C196.63 83.1524 196.274 82.1897 196.274 81.0895C196.274 79.9894 196.63 79.0267 197.341 78.2016C198.053 77.3765 198.883 76.9639 199.832 76.9639C200.781 76.9639 201.611 77.3765 202.323 78.2016C203.153 79.0267 203.569 79.9894 203.569 81.0895ZM203.569 100.274C203.569 101.374 203.213 102.336 202.501 103.162C201.789 103.987 200.959 104.399 200.01 104.399C199.061 104.399 198.172 103.987 197.341 103.162C196.63 102.336 196.274 101.374 196.274 100.274C196.274 99.1735 196.63 98.2108 197.341 97.3857C198.053 96.5606 198.883 96.148 199.832 96.148C200.781 96.148 201.611 96.5606 202.323 97.3857C203.153 98.2108 203.569 99.1735 203.569 100.274ZM203.569 119.251C203.569 120.352 203.213 121.314 202.501 122.139C201.789 122.964 200.959 123.377 200.01 123.377C199.061 123.377 198.172 122.964 197.341 122.139C196.63 121.314 196.274 120.352 196.274 119.251C196.274 118.151 196.63 117.189 197.341 116.363C198.053 115.538 198.883 115.126 199.832 115.126C200.781 115.126 201.611 115.538 202.323 116.363C203.153 117.189 203.569 118.151 203.569 119.251ZM203.569 138.436C203.569 139.536 203.213 140.498 202.501 141.323C201.789 142.149 200.959 142.561 200.01 142.561C199.061 142.561 198.172 142.149 197.341 141.323C196.63 140.498 196.274 139.536 196.274 138.436C196.274 137.335 196.63 136.373 197.341 135.548C198.053 134.722 198.883 134.31 199.832 134.31C200.781 134.31 201.611 134.722 202.323 135.548C203.153 136.373 203.569 137.335 203.569 138.436ZM203.569 42.9277C203.569 44.0278 203.213 44.9905 202.501 45.8156C201.789 46.6407 200.959 47.0533 200.01 47.0533C199.061 47.0533 198.172 46.6407 197.341 45.8156C196.63 44.9905 196.274 44.0278 196.274 42.9277C196.274 41.8275 196.63 40.8649 197.341 40.0398C198.053 39.2146 198.883 38.8021 199.832 38.8021C200.781 38.8021 201.611 39.2146 202.323 40.0398C203.153 40.8649 203.569 41.8275 203.569 42.9277ZM203.569 62.1118C203.569 63.2119 203.213 64.1746 202.501 64.9997C201.789 65.8248 200.959 66.2374 200.01 66.2374C199.061 66.2374 198.172 65.8248 197.341 64.9997C196.63 64.1746 196.274 63.2119 196.274 62.1118C196.274 61.0116 196.63 60.049 197.341 59.2238C198.053 58.3987 198.883 57.9861 199.832 57.9861C200.781 57.9861 201.611 58.3987 202.323 59.2238C203.153 60.049 203.569 61.0116 203.569 62.1118ZM203.569 23.9499C203.569 25.05 203.213 26.0127 202.501 26.8378C201.789 27.5254 200.959 27.8692 200.01 27.8692C199.061 27.8692 198.172 27.5254 197.341 26.8378C196.63 26.0127 196.274 25.05 196.274 23.9499C196.274 22.8497 196.63 21.8871 197.341 21.062C198.053 20.2368 198.883 19.8243 199.832 19.8243C200.781 19.8243 201.611 20.2368 202.323 21.062C203.035 21.8871 203.391 22.8497 203.391 23.9499H203.569ZM272.779 43.9591C272.779 45.0592 272.423 46.0219 271.711 46.847C271.118 47.5346 270.347 47.8784 269.398 47.8784C268.449 47.8784 267.619 47.5346 266.907 46.847C266.314 46.0219 266.018 45.0592 266.018 43.9591C266.018 42.8589 266.314 41.965 266.907 41.2774C267.619 40.4523 268.449 40.0398 269.398 40.0398C270.347 40.0398 271.118 40.4523 271.711 41.2774C272.423 41.965 272.779 42.8589 272.779 43.9591ZM272.779 62.5243C272.779 63.6245 272.423 64.5871 271.711 65.4122C271.118 66.0998 270.347 66.4436 269.398 66.4436C268.449 66.4436 267.619 66.0998 266.907 65.4122C266.314 64.5871 266.018 63.6245 266.018 62.5243C266.018 61.4242 266.314 60.5303 266.907 59.8427C267.619 59.0176 268.449 58.605 269.398 58.605C270.347 58.605 271.118 59.0176 271.711 59.8427C272.423 60.5303 272.779 61.4242 272.779 62.5243ZM272.779 80.8833C272.779 81.9834 272.423 82.9461 271.711 83.7712C271.118 84.4588 270.347 84.8026 269.398 84.8026C268.449 84.8026 267.619 84.4588 266.907 83.7712C266.314 82.9461 266.018 81.9834 266.018 80.8833C266.018 79.7831 266.314 78.8892 266.907 78.2016C267.619 77.3765 268.449 76.9639 269.398 76.9639C270.347 76.9639 271.118 77.3765 271.711 78.2016C272.423 78.8892 272.779 79.7831 272.779 80.8833ZM272.779 99.4485C272.779 100.549 272.423 101.511 271.711 102.336C271.118 103.024 270.347 103.368 269.398 103.368C268.449 103.368 267.619 103.024 266.907 102.336C266.314 101.511 266.018 100.549 266.018 99.4485C266.018 98.3483 266.314 97.4545 266.907 96.7669C267.619 95.9417 268.449 95.5292 269.398 95.5292C270.347 95.5292 271.118 95.9417 271.711 96.7669C272.423 97.4545 272.779 98.3483 272.779 99.4485ZM272.779 117.807C272.779 118.908 272.423 119.87 271.711 120.695C271.118 121.383 270.347 121.727 269.398 121.727C268.449 121.727 267.619 121.383 266.907 120.695C266.314 119.87 266.018 118.908 266.018 117.807C266.018 116.707 266.314 115.813 266.907 115.126C267.619 114.301 268.449 113.888 269.398 113.888C270.347 113.888 271.118 114.301 271.711 115.126C272.423 115.813 272.779 116.707 272.779 117.807Z" fill="#252525"/>
<path d="M108.345 97.8515V148.778C102.095 148.985 95.801 148.985 89.4624 148.778C83.1237 148.468 76.7403 147.898 70.3123 147.07C57.4563 145.518 45.8056 141.947 35.3601 136.357C24.8252 130.561 16.3439 122.28 9.91591 111.515C3.30937 100.543 0.00608791 85.9478 0.00608791 67.7301C-0.0831962 60.1738 0.809587 53.2905 2.68442 47.0799C4.64854 40.7657 7.28221 35.1762 10.5855 30.3113C13.978 25.3428 17.9955 20.9954 22.638 17.2691C27.2805 13.5427 32.28 10.4891 37.6366 8.10843C43.0826 5.62419 48.7517 3.76102 54.644 2.5189C60.5364 1.1732 66.4733 0.448774 72.455 0.34519C78.4366 0.241606 84.4181 0.189926 90.3998 0.189926C96.4706 0.189926 102.318 0.293513 107.943 0.500459C102.318 0.914572 96.5154 1.2251 90.5337 1.43205C84.6414 1.63899 78.4812 1.94952 72.0532 2.36364C64.3754 2.88111 56.7867 4.64092 49.2874 7.64264C41.8774 10.6443 35.2261 14.8884 29.3338 20.3744C23.5308 25.7569 18.9329 32.2781 15.5404 39.9377C12.1479 47.5974 10.7194 56.3441 11.2551 66.1775C12.0586 81.7039 16.0315 93.4524 23.1737 101.423C30.2267 109.186 38.7526 113.999 48.7517 115.862C58.6615 117.725 69.0177 116.949 79.8204 113.533C85.2664 111.774 90.3552 109.6 95.0869 107.012C99.8185 104.424 104.238 101.371 108.345 97.8515ZM108.077 4.6926V39.1614C101.113 30.156 94.1049 23.5832 87.0519 19.4428C83.3022 17.3726 79.4186 15.4059 75.4011 13.5427C71.473 11.6795 67.2322 9.9716 62.679 8.41896C71.339 6.55578 79.2401 5.46893 86.3823 5.1584C93.1674 4.84787 100.399 4.6926 108.077 4.6926Z" fill="#252525"/>
<path d="M509.109 54.6324C509.957 54.6324 510.745 55.1242 511.472 56.1074C512.199 57.2313 512.562 58.2849 512.562 59.2682C512.562 59.9706 512.199 60.7432 511.472 61.5861C510.745 62.4289 510.079 62.8504 509.473 62.8504C508.382 62.8504 507.412 62.4289 506.565 61.5861C505.717 60.6028 505.292 59.6896 505.292 58.8467C505.292 57.7229 505.717 56.7396 506.565 55.8967C507.292 55.0539 508.139 54.6324 509.109 54.6324ZM534.19 52.736C531.766 51.0502 529.585 50.2074 527.647 50.2074C525.709 50.2074 524.073 50.9098 522.74 52.3145C521.406 53.7192 520.741 55.5456 520.741 57.7932C520.741 60.6028 521.406 62.78 522.74 64.3254C523.951 66.0111 525.709 66.854 528.01 66.854C529.828 66.854 532.252 65.66 535.28 63.2718V64.7468L534.917 66.0111C531.282 77.5302 524.133 83.2899 513.471 83.2899C508.746 83.2899 501.839 81.253 492.752 77.1791C486.33 74.3695 481 72.0516 476.759 70.2254C472.64 68.2587 469.428 66.9243 467.126 66.2218C457.796 63.4122 446.771 61.5861 434.049 60.7432V56.5289C440.228 56.1074 446.226 55.2646 452.041 54.0003C456.767 53.017 463.491 51.1205 472.215 48.3109C476.213 47.0466 482.938 43.8156 492.389 38.618C499.779 34.4036 505.474 32.2965 509.473 32.2965C522.801 32.2965 531.282 38.899 534.917 52.1038L534.19 52.736ZM468.944 59.9003C469.55 58.9171 469.852 58.1443 469.852 57.5824C469.852 56.1777 468.882 55.4753 466.944 55.4753C466.581 55.4753 466.156 55.7563 465.672 56.3181C465.188 56.88 464.945 57.3717 464.945 57.7932C464.945 60.0407 465.672 61.1646 467.126 61.1646C467.733 61.1646 468.337 60.7432 468.944 59.9003ZM482.211 61.7968C483.058 60.8135 483.483 59.6193 483.483 58.2146C483.483 57.3717 482.999 56.3885 482.029 55.2646C481.182 54.2813 480.332 53.7896 479.485 53.7896C478.515 53.7896 477.667 54.3514 476.94 55.4753C476.093 56.4585 475.668 57.5121 475.668 58.636C475.668 59.6193 476.093 60.7432 476.94 62.0075C477.788 62.9908 478.758 63.4825 479.848 63.4825C480.696 63.4825 481.484 62.9207 482.211 61.7968ZM492.934 62.8504C495.358 62.8504 496.569 61.305 496.569 58.2146C496.569 55.686 495.599 54.4217 493.661 54.4217C492.327 54.4217 491.359 54.7728 490.753 55.4753C489.905 56.3181 489.481 57.2313 489.481 58.2146C489.481 59.4789 489.844 60.5325 490.571 61.3753C491.298 62.3586 492.086 62.8504 492.934 62.8504ZM513.471 63.4825C514.804 61.9372 515.47 60.1814 515.47 58.2146C515.47 53.4384 513.228 51.0502 508.746 51.0502C506.928 51.0502 505.413 51.6824 504.202 52.9467C502.869 54.492 502.203 56.1074 502.203 57.7932C502.203 59.4789 502.869 61.2349 504.202 63.0611C505.656 64.7468 507.049 65.5897 508.382 65.5897C510.443 65.5897 512.138 64.8872 513.471 63.4825ZM524.194 54.211C525.164 53.0871 526.072 52.5253 526.92 52.5253C528.494 52.5253 529.828 53.2277 530.918 54.6324C532.009 55.8967 532.554 57.5121 532.554 59.4789C532.554 60.8836 532.07 62.0075 531.1 62.8504C530.253 63.8336 529.162 64.3254 527.829 64.3254C526.495 64.3254 525.345 63.7635 524.376 62.6396C523.406 61.2349 522.922 59.7599 522.922 58.2146C522.922 57.0907 523.346 55.7563 524.194 54.211ZM506.928 5.74619C513.471 5.74619 519.589 7.2212 525.284 10.1712C530.98 12.9809 535.946 16.8439 540.187 21.7606C544.429 26.6774 547.759 32.4369 550.183 39.0394C552.728 45.6419 554 52.736 554 60.3218C554 67.9076 552.728 75.0016 550.183 81.6041C547.759 88.2067 544.429 93.9661 540.187 98.8829C535.946 103.8 530.98 107.733 525.284 110.683C519.589 113.493 513.471 114.897 506.928 114.897H500.749V154.301H434.049V66.4325C434.292 66.4325 434.474 66.5028 434.594 66.6433C434.837 66.6433 435.078 66.6433 435.321 66.6433C439.683 67.7672 443.924 69.1015 448.043 70.6469C452.284 72.0516 456.403 73.7373 460.402 75.7041C464.28 77.6708 468.217 79.6374 472.215 81.6041C476.213 83.5709 480.151 85.5374 484.028 87.5042C491.662 91.4375 498.084 93.4043 503.293 93.4043C512.501 93.4043 520.438 90.5946 527.102 84.9756C533.524 79.3566 536.916 71.9112 537.279 62.6396C537.279 62.4992 537.341 62.3586 537.461 62.2182C537.461 61.6564 536.855 60.4622 535.644 58.636C536.734 56.5289 537.279 54.8431 537.279 53.5788C537.279 47.8192 534.978 41.849 530.373 35.6679C527.465 31.875 523.769 28.925 519.287 26.8178C515.045 24.5703 510.563 23.4464 505.838 23.4464C498.568 23.4464 491.298 24.9917 484.028 28.0821C481.241 29.206 475.123 32.3668 465.672 37.5644C460.826 40.093 456.342 42.2705 452.223 44.0966C448.225 45.9227 444.529 47.3977 441.137 48.5216C439.803 48.9431 438.592 49.3645 437.502 49.7859C436.411 50.067 435.26 50.3478 434.049 50.6288V5.74619H506.928Z" fill="#252525"/>
</svg>
